<svg xmlns="http://www.w3.org/2000/svg" width="172.864" height="52" viewBox="0 0 172.864 52">
  <g id="Unplex-logo" transform="translate(-482.12 -399.34)">
    <path id="Path_34" data-name="Path 34" d="M482.12,437.456V423.11h8.495v14.346c0,4.371,2.152,6.221,5.323,6.221s5.323-1.849,5.323-6.221V423.11h8.494v14.346c0,9.3-5.55,14.066-13.818,14.066s-13.818-4.707-13.818-14.066" transform="translate(0 -11.461)" fill="#00adc4"/>
    <path id="Path_35" data-name="Path 35" d="M541.18,435.814c0-9.348,5.55-14.134,13.818-14.134s13.818,4.73,13.818,14.134V450.23h-8.494V435.814c0-4.392-2.152-6.251-5.323-6.251s-5.323,1.858-5.323,6.251V450.23H541.18Z" transform="translate(-28.653 -10.839)" fill="#00adc4"/>
    <path id="Path_36" data-name="Path 36" d="M600.24,436.681c0-4.706,1.586-4.85,4.237-7.429.144-4.16,5.663-7.65,10.657-7.583,8.891,0,15.12,6.065,15.12,15.069,0,9.74-7.248,14.384-13.591,14.384a9.318,9.318,0,0,1-7.928-3.794v15.007H600.24Zm21.407-.283c0-4.021-2.605-6.8-6.456-6.8s-6.456,2.775-6.456,6.8,2.605,6.8,6.456,6.8,6.456-2.775,6.456-6.8" transform="translate(-57.306 -10.995)" fill="#00adc4"/>
    <rect id="Rectangle_16" data-name="Rectangle 16" width="8.495" height="40.208" transform="translate(576.003 399.34)" fill="#00adc4"/>
    <path id="Path_37" data-name="Path 37" d="M686.9,436.318c0-8.448,6.229-14.648,15.064-14.648s14.894,6.2,14.894,14.648v2.365H695.75c.68,3.267,3.171,4.731,6.229,4.731,2.435,0,4.247-.512,5.323-2.048h8.752c-1.812,5.745-7.135,9.574-14.1,9.574-8.834,0-15.064-6.2-15.064-14.643m21.237-2.985c-.963-2.872-3.228-4.1-6.178-4.1s-5.21,1.3-6.059,4.1Z" transform="translate(-99.344 -10.834)" fill="#00adc4"/>
    <g id="Group_167077" data-name="Group 167077" transform="translate(615.302 411.177)">
      <path id="Path_33" data-name="Path 33" d="M814.474,424.3a1.807,1.807,0,1,1-1.807-1.807,1.807,1.807,0,0,1,1.807,1.807m-.422,0a1.38,1.38,0,1,0-.4.984,1.385,1.385,0,0,0,.4-.984m-.942.232.443.613h-.638l-.381-.551h-.057v.551h-.515v-1.684h.932a.564.564,0,0,1,.227,1.086m-.36-.623h-.283v.288h.263c.108,0,.154-.046.154-.144s-.046-.144-.154-.144" transform="translate(-774.792 -422.49)" fill="#00adc4"/>
      <path id="Path_38" data-name="Path 38" d="M793.42,423.11l-6.786,9.087a4.191,4.191,0,0,1-6.729,0l-1.575-2.131,5.179-6.935Z" transform="translate(-759.008 -422.791)" fill="#00adc4"/>
      <path id="Path_39" data-name="Path 39" d="M757.156,442.457l-6.446,8.628H740.8l10.621-14.214L741.253,423.11H751.39l5.8,7.846a9.637,9.637,0,0,1-.031,11.5" transform="translate(-740.8 -422.791)" fill="#00adc4"/>
      <path id="Path_40" data-name="Path 40" d="M793.712,466.569H783.576L778,459.022l1.72-2.306a4.191,4.191,0,0,1,6.729,0Z" transform="translate(-758.849 -438.274)" fill="#00adc4"/>
    </g>
    <rect id="Rectangle_17" data-name="Rectangle 17" width="8.134" height="14.925" transform="translate(542.954 411.396)" fill="#00adc4"/>
  </g>
</svg>
