<svg xmlns="http://www.w3.org/2000/svg" width="1200" height="630" viewBox="0 0 1200 630">
  <defs>
    <linearGradient id="bg" x1="0" y1="0" x2="1" y2="1">
      <stop offset="0%" stop-color="#1a1f36"/>
      <stop offset="100%" stop-color="#0d1117"/>
    </linearGradient>
  </defs>
  <rect width="1200" height="630" fill="url(#bg)"/>

  <!-- Title -->
  <text x="70" y="84" fill="#ffffff" font-family="system-ui" font-size="40" font-weight="800">How to Buy SpaceX &amp;</text>
  <text x="70" y="134" fill="#ffffff" font-family="system-ui" font-size="40" font-weight="800">Nvidia Stock on Revolut</text>
  <text x="70" y="170" fill="#ffffff80" font-family="system-ui" font-size="18">Fractional shares from $1 · Step-by-step guide</text>

  <!-- Feature badges -->
  <g>
    <rect x="70" y="206" width="480" height="76" rx="18" fill="#ffffff10" stroke="#ffffff25"/>
    <circle cx="110" cy="244" r="22" fill="#34a853"/>
    <path d="M99,252 L110,231 L121,252 Z" fill="#ffffff"/>
    <text x="146" y="237" fill="#ffffff" font-family="system-ui" font-size="18" font-weight="700">SPCX closed +19% on debut day</text>
    <text x="146" y="259" fill="#ffffffa0" font-family="system-ui" font-size="13">SpaceX IPO'd at a $1.75 trillion valuation, Jun 12 2026</text>
  </g>
  <g>
    <rect x="70" y="298" width="480" height="76" rx="18" fill="#ffffff10" stroke="#ffffff25"/>
    <circle cx="110" cy="336" r="22" fill="#1a73e8"/>
    <text x="110" y="344" text-anchor="middle" fill="#ffffff" font-family="system-ui" font-size="22" font-weight="800">$</text>
    <text x="146" y="329" fill="#ffffff" font-family="system-ui" font-size="18" font-weight="700">Buy fractional shares from $1</text>
    <text x="146" y="351" fill="#ffffffa0" font-family="system-ui" font-size="13">No need to buy a whole share of SPCX or NVDA</text>
  </g>
  <g>
    <rect x="70" y="390" width="480" height="76" rx="18" fill="#ffffff10" stroke="#ffffff25"/>
    <circle cx="110" cy="428" r="22" fill="#ffffff"/>
    <text x="110" y="436" text-anchor="middle" fill="#1a73e8" font-family="system-ui" font-size="20" font-weight="800">R</text>
    <text x="146" y="421" fill="#ffffff" font-family="system-ui" font-size="18" font-weight="700">Funded from your Revolut balance</text>
    <text x="146" y="443" fill="#ffffffa0" font-family="system-ui" font-size="13">No separate brokerage account or transfer step</text>
  </g>

  <!-- Phone mockup -->
  <g>
    <rect x="860" y="85" width="270" height="470" rx="34" fill="#11151f" stroke="#ffffff25" stroke-width="2"/>
    <rect x="945" y="97" width="100" height="14" rx="7" fill="#0d1117"/>
    <rect x="874" y="113" width="242" height="414" rx="20" fill="#1c2333"/>
    <text x="894" y="148" fill="#ffffff" font-family="system-ui" font-size="22" font-weight="700">Stocks</text>
    <circle cx="1090" cy="140" r="14" fill="#ffffff"/>
    <text x="1090" y="145" text-anchor="middle" fill="#1a73e8" font-family="system-ui" font-size="14" font-weight="800">R</text>

    <!-- SPCX card -->
    <rect x="888" y="172" width="214" height="96" rx="14" fill="#ffffff12"/>
    <text x="904" y="204" fill="#ffffff" font-family="system-ui" font-size="19" font-weight="700">SPCX</text>
    <text x="904" y="224" fill="#ffffffa0" font-family="system-ui" font-size="11">SpaceX Corp · NASDAQ</text>
    <text x="904" y="254" fill="#ffffff" font-family="system-ui" font-size="22" font-weight="700">$161.00</text>
    <text x="1088" y="254" text-anchor="end" fill="#34a853" font-family="system-ui" font-size="16" font-weight="700">+19.0%</text>
    <polyline points="980,248 1000,238 1015,242 1035,222 1055,228 1075,205 1088,212" fill="none" stroke="#34a853" stroke-width="2" stroke-linecap="round"/>

    <!-- NVDA card -->
    <rect x="888" y="280" width="214" height="96" rx="14" fill="#ffffff12"/>
    <text x="904" y="312" fill="#ffffff" font-family="system-ui" font-size="19" font-weight="700">NVDA</text>
    <text x="904" y="332" fill="#ffffffa0" font-family="system-ui" font-size="11">NVIDIA Corp · NASDAQ</text>
    <text x="904" y="362" fill="#ffffff" font-family="system-ui" font-size="22" font-weight="700">$214.50</text>
    <text x="1088" y="362" text-anchor="end" fill="#34a853" font-family="system-ui" font-size="16" font-weight="700">+2.3%</text>
    <polyline points="980,356 1000,350 1015,352 1035,340 1055,344 1075,328 1088,332" fill="none" stroke="#34a853" stroke-width="2" stroke-linecap="round"/>

    <!-- Buy button -->
    <rect x="888" y="396" width="214" height="52" rx="26" fill="#1a73e8"/>
    <text x="995" y="430" text-anchor="middle" fill="#ffffff" font-family="system-ui" font-size="20" font-weight="700">Buy</text>
    <text x="995" y="464" text-anchor="middle" fill="#ffffff80" font-family="system-ui" font-size="12">1 free trade/month on Standard</text>
  </g>

  <!-- Footer -->
  <text x="600" y="605" text-anchor="middle" fill="#1a73e8" font-family="system-ui" font-size="16" font-weight="600">sendmoneycompare.com</text>
</svg>
