<svg xmlns="http://www.w3.org/2000/svg" width="1200" height="630" viewBox="0 0 1200 630">
  <defs>
    <linearGradient id="bg" x1="0" y1="0" x2="1" y2="1">
      <stop offset="0%" stop-color="#0b1e3f"/>
      <stop offset="100%" stop-color="#05101f"/>
    </linearGradient>
    <linearGradient id="gbp" x1="0" y1="0" x2="0" y2="1">
      <stop offset="0%" stop-color="#cf142b"/>
      <stop offset="100%" stop-color="#00247d"/>
    </linearGradient>
    <radialGradient id="globe" cx="0.35" cy="0.4" r="0.6">
      <stop offset="0%" stop-color="#3b82f6" stop-opacity="0.35"/>
      <stop offset="100%" stop-color="#0b1e3f" stop-opacity="0"/>
    </radialGradient>
  </defs>
  <rect width="1200" height="630" fill="url(#bg)"/>
  <circle cx="320" cy="360" r="260" fill="url(#globe)"/>

  <!-- Union Jack stripes -->
  <g transform="translate(1020, 80)" opacity="0.85">
    <rect width="120" height="80" rx="6" fill="#00247d"/>
    <line x1="0" y1="0" x2="120" y2="80" stroke="#ffffff" stroke-width="10"/>
    <line x1="120" y1="0" x2="0" y2="80" stroke="#ffffff" stroke-width="10"/>
    <line x1="60" y1="0" x2="60" y2="80" stroke="#ffffff" stroke-width="14"/>
    <line x1="0" y1="40" x2="120" y2="40" stroke="#ffffff" stroke-width="14"/>
    <line x1="60" y1="0" x2="60" y2="80" stroke="#cf142b" stroke-width="6"/>
    <line x1="0" y1="40" x2="120" y2="40" stroke="#cf142b" stroke-width="6"/>
  </g>

  <g stroke="#ffffff0a" stroke-width="1">
    <line x1="80" y1="460" x2="1120" y2="460"/>
    <line x1="80" y1="380" x2="1120" y2="380"/>
  </g>

  <g transform="translate(80, 70)">
    <rect width="220" height="34" rx="17" fill="#00247d"/>
    <text x="110" y="23" text-anchor="middle" fill="#ffffff" font-family="system-ui" font-size="13" font-weight="600" letter-spacing="1.5">UK · GBP GUIDE</text>
  </g>

  <text x="80" y="180" fill="#ffffff" font-family="system-ui" font-size="46" font-weight="700">Send Money to the UK</text>
  <text x="80" y="225" fill="#93c5fd" font-family="system-ui" font-size="24" font-weight="500">GBP transfer guide · Faster Payments</text>

  <g transform="translate(640, 200)">
    <rect width="480" height="170" rx="24" fill="#cf142b12" stroke="#93c5fd" stroke-width="2"/>
    <text x="240" y="50" text-anchor="middle" fill="#93c5fd" font-family="system-ui" font-size="14" font-weight="600" letter-spacing="2">USD / GBP  ·  MID-MARKET</text>
    <text x="240" y="135" text-anchor="middle" fill="url(#gbp)" font-family="system-ui" font-size="92" font-weight="800">£0.74</text>
  </g>

  <g transform="translate(80, 480)">
    <rect width="320" height="90" rx="14" fill="#ffffff0a" stroke="#ffffff18"/>
    <text x="24" y="32" fill="#93c5fd" font-family="system-ui" font-size="12" font-weight="600" letter-spacing="1.5">EUR / GBP</text>
    <text x="24" y="72" fill="#ffffff" font-family="system-ui" font-size="32" font-weight="700">£0.85</text>
  </g>
  <g transform="translate(420, 480)">
    <rect width="320" height="90" rx="14" fill="#ffffff0a" stroke="#ffffff18"/>
    <text x="24" y="32" fill="#93c5fd" font-family="system-ui" font-size="12" font-weight="600" letter-spacing="1.5">FASTER PAYMENTS</text>
    <text x="24" y="72" fill="#ffffff" font-family="system-ui" font-size="28" font-weight="700">in seconds · 24/7</text>
  </g>
  <g transform="translate(760, 480)">
    <rect width="360" height="90" rx="14" fill="#ffffff0a" stroke="#ffffff18"/>
    <text x="24" y="32" fill="#93c5fd" font-family="system-ui" font-size="12" font-weight="600" letter-spacing="1.5">TOP PROVIDERS</text>
    <text x="24" y="72" fill="#ffffff" font-family="system-ui" font-size="26" font-weight="700">Wise · Revolut · Currencies</text>
  </g>

  <text x="600" y="615" text-anchor="middle" fill="#60a5fa" font-family="system-ui" font-size="16" font-weight="600">sendmoneycompare.com</text>
</svg>
