<svg xmlns="http://www.w3.org/2000/svg" width="1200" height="630" viewBox="0 0 1200 630">
  <defs>
    <linearGradient id="bg" x1="0" y1="0" x2="1" y2="1">
      <stop offset="0%" stop-color="#2c0f0f"/>
      <stop offset="100%" stop-color="#170707"/>
    </linearGradient>
    <linearGradient id="try" x1="0" y1="0" x2="0" y2="1">
      <stop offset="0%" stop-color="#ffffff"/>
      <stop offset="100%" stop-color="#e30a17"/>
    </linearGradient>
    <radialGradient id="globe" cx="0.35" cy="0.4" r="0.6">
      <stop offset="0%" stop-color="#ef4444" stop-opacity="0.3"/>
      <stop offset="100%" stop-color="#170707" stop-opacity="0"/>
    </radialGradient>
    <marker id="downA" markerWidth="12" markerHeight="9" refX="11" refY="4.5" orient="auto">
      <polygon points="0 0, 12 4.5, 0 9" fill="#fca5a5"/>
    </marker>
  </defs>
  <rect width="1200" height="630" fill="url(#bg)"/>
  <circle cx="320" cy="360" r="260" fill="url(#globe)"/>

  <!-- Crescent + star motif -->
  <g transform="translate(1040, 100)" opacity="0.85">
    <circle cx="50" cy="60" r="36" fill="#e30a17"/>
    <circle cx="58" cy="58" r="28" fill="#170707"/>
    <polygon points="78,60 84,72 96,72 87,80 90,92 78,84 66,92 69,80 60,72 72,72" fill="#ffffff"/>
  </g>

  <g stroke="#ffffff0a" stroke-width="1">
    <line x1="80" y1="460" x2="1120" y2="460"/>
    <line x1="80" y1="380" x2="1120" y2="380"/>
  </g>

  <g transform="translate(80, 70)">
    <rect width="220" height="34" rx="17" fill="#e30a17"/>
    <text x="110" y="23" text-anchor="middle" fill="#ffffff" font-family="system-ui" font-size="13" font-weight="600" letter-spacing="1.5">TURKEY · TRY GUIDE</text>
  </g>

  <text x="80" y="180" fill="#ffffff" font-family="system-ui" font-size="46" font-weight="700">Send Money to Turkey</text>
  <text x="80" y="225" fill="#fca5a5" font-family="system-ui" font-size="24" font-weight="500">TRY guide · inflation-aware sending</text>

  <g transform="translate(640, 150)">
    <rect width="480" height="220" rx="24" fill="#e30a1715" stroke="#fca5a5" stroke-width="2"/>
    <text x="240" y="60" text-anchor="middle" fill="#fca5a5" font-family="system-ui" font-size="14" font-weight="600" letter-spacing="2">USD / TRY  ·  MID-MARKET</text>
    <text x="240" y="170" text-anchor="middle" fill="url(#try)" font-family="system-ui" font-size="100" font-weight="800">₺ 39.2</text>
    <g transform="translate(160, 180)">
      <rect width="160" height="28" rx="14" fill="#991b1b"/>
      <text x="80" y="20" text-anchor="middle" fill="#ffffff" font-family="system-ui" font-size="14" font-weight="600">▼ TRY weakening</text>
    </g>
  </g>

  <g transform="translate(80, 480)">
    <rect width="320" height="90" rx="14" fill="#ffffff0a" stroke="#ffffff18"/>
    <text x="24" y="32" fill="#fca5a5" font-family="system-ui" font-size="12" font-weight="600" letter-spacing="1.5">EUR / TRY</text>
    <text x="24" y="72" fill="#ffffff" font-family="system-ui" font-size="32" font-weight="700">₺ 45.8</text>
  </g>
  <g transform="translate(420, 480)">
    <rect width="320" height="90" rx="14" fill="#ffffff0a" stroke="#ffffff18"/>
    <text x="24" y="32" fill="#fca5a5" font-family="system-ui" font-size="12" font-weight="600" letter-spacing="1.5">GBP / TRY</text>
    <text x="24" y="72" fill="#ffffff" font-family="system-ui" font-size="32" font-weight="700">₺ 53.2</text>
  </g>
  <g transform="translate(760, 480)">
    <rect width="360" height="90" rx="14" fill="#ffffff0a" stroke="#ffffff18"/>
    <text x="24" y="32" fill="#fca5a5" font-family="system-ui" font-size="12" font-weight="600" letter-spacing="1.5">CBRT POLICY RATE</text>
    <text x="24" y="72" fill="#ffffff" font-family="system-ui" font-size="28" font-weight="700">42.5%</text>
  </g>

  <text x="600" y="615" text-anchor="middle" fill="#60a5fa" font-family="system-ui" font-size="16" font-weight="600">sendmoneycompare.com</text>
</svg>
