<svg xmlns="http://www.w3.org/2000/svg" width="1200" height="630" viewBox="0 0 1200 630">
  <defs>
    <linearGradient id="bg" x1="0" y1="0" x2="1" y2="1">
      <stop offset="0%" stop-color="#240a0b"/>
      <stop offset="100%" stop-color="#100404"/>
    </linearGradient>
    <linearGradient id="vnd" x1="0" y1="0" x2="0" y2="1">
      <stop offset="0%" stop-color="#fde047"/>
      <stop offset="100%" stop-color="#da251d"/>
    </linearGradient>
    <radialGradient id="globe" cx="0.35" cy="0.4" r="0.6">
      <stop offset="0%" stop-color="#dc2626" stop-opacity="0.3"/>
      <stop offset="100%" stop-color="#100404" stop-opacity="0"/>
    </radialGradient>
  </defs>
  <rect width="1200" height="630" fill="url(#bg)"/>
  <circle cx="320" cy="360" r="260" fill="url(#globe)"/>

  <!-- Yellow star on red badge -->
  <g transform="translate(1040, 90)" opacity="0.85">
    <rect width="120" height="80" rx="6" fill="#da251d"/>
    <polygon points="60,18 70,42 96,42 75,58 84,82 60,68 36,82 45,58 24,42 50,42" fill="#fde047"/>
  </g>

  <g stroke="#ffffff0a" stroke-width="1">
    <line x1="80" y1="460" x2="1120" y2="460"/>
    <line x1="80" y1="380" x2="1120" y2="380"/>
  </g>

  <g transform="translate(80, 70)">
    <rect width="240" height="34" rx="17" fill="#da251d"/>
    <text x="120" y="23" text-anchor="middle" fill="#fde047" font-family="system-ui" font-size="13" font-weight="600" letter-spacing="1.5">VIETNAM · VND GUIDE</text>
  </g>

  <text x="80" y="180" fill="#ffffff" font-family="system-ui" font-size="46" font-weight="700">Send Money to Vietnam</text>
  <text x="80" y="225" fill="#fde047" font-family="system-ui" font-size="24" font-weight="500">VND transfer guide · 2026 rates</text>

  <g transform="translate(640, 150)">
    <rect width="480" height="220" rx="24" fill="#da251d15" stroke="#fde047" stroke-width="2"/>
    <text x="240" y="60" text-anchor="middle" fill="#fde047" font-family="system-ui" font-size="14" font-weight="600" letter-spacing="2">USD / VND  ·  MID-MARKET</text>
    <text x="240" y="170" text-anchor="middle" fill="url(#vnd)" font-family="system-ui" font-size="84" font-weight="800">₫ 25,460</text>
    <text x="240" y="205" text-anchor="middle" fill="#ffffff" font-family="system-ui" font-size="18" font-weight="500">per US$1</text>
  </g>

  <g transform="translate(80, 480)">
    <rect width="320" height="90" rx="14" fill="#ffffff0a" stroke="#ffffff18"/>
    <text x="24" y="32" fill="#fde047" font-family="system-ui" font-size="12" font-weight="600" letter-spacing="1.5">GBP / VND</text>
    <text x="24" y="72" fill="#ffffff" font-family="system-ui" font-size="32" font-weight="700">₫ 34,560</text>
  </g>
  <g transform="translate(420, 480)">
    <rect width="320" height="90" rx="14" fill="#ffffff0a" stroke="#ffffff18"/>
    <text x="24" y="32" fill="#fde047" font-family="system-ui" font-size="12" font-weight="600" letter-spacing="1.5">CASH PICKUP</text>
    <text x="24" y="72" fill="#ffffff" font-family="system-ui" font-size="26" font-weight="700">Sacombank · VietinBank</text>
  </g>
  <g transform="translate(760, 480)">
    <rect width="360" height="90" rx="14" fill="#ffffff0a" stroke="#ffffff18"/>
    <text x="24" y="32" fill="#fde047" font-family="system-ui" font-size="12" font-weight="600" letter-spacing="1.5">TOP PROVIDERS</text>
    <text x="24" y="72" fill="#ffffff" font-family="system-ui" font-size="26" font-weight="700">Wise · Remitly · WorldRemit</text>
  </g>

  <text x="600" y="615" text-anchor="middle" fill="#60a5fa" font-family="system-ui" font-size="16" font-weight="600">sendmoneycompare.com</text>
</svg>
